<svg xmlns="http://www.w3.org/2000/svg" viewBox="0 0 64 64">
  <rect width="64" height="64" rx="14" fill="#111827"/>
  <path d="M14 16c0-3 2.4-5.4 5.4-5.4h12.2c3 0 5.4 2.4 5.4 5.4v33.5c0 1.1-.9 2-2 2H20.5c-3.6 0-6.5-2.9-6.5-6.5V16z" fill="#38bdf8"/>
  <path d="M28 16c0-3 2.4-5.4 5.4-5.4h11.2c3 0 5.4 2.4 5.4 5.4v29c0 3.6-2.9 6.5-6.5 6.5H30c-1.1 0-2-.9-2-2V16z" fill="#f8fafc"/>
  <path d="M28 15.2h4v36.3h-4z" fill="#0f172a" opacity=".22"/>
  <path d="M36 22h8M36 29h8M36 36h6" stroke="#0f172a" stroke-width="3" stroke-linecap="round"/>
  <path d="M20 22h6M20 29h5M20 36h6" stroke="#e0f2fe" stroke-width="3" stroke-linecap="round"/>
</svg>
